<svg xmlns="http://www.w3.org/2000/svg" viewBox="0 0 560 520" width="560" height="520" role="img" aria-label="ASUS TUF Gaming A15 RTX 4060">
  <defs>
    <linearGradient id="bg" x1="0" y1="0" x2="1" y2="1">
      <stop offset="0" stop-color="#0b2f2a"/>
      <stop offset="1" stop-color="#080c14"/>
    </linearGradient>
    <linearGradient id="screen" x1="0" y1="0" x2="1" y2="1">
      <stop offset="0" stop-color="#00b392" stop-opacity=".38"/>
      <stop offset="1" stop-color="#00b392" stop-opacity=".06"/>
    </linearGradient>
    <radialGradient id="glow" cx="50%" cy="38%" r="58%">
      <stop offset="0" stop-color="#00b392" stop-opacity=".45"/>
      <stop offset="1" stop-color="#00b392" stop-opacity="0"/>
    </radialGradient>
    <pattern id="grid" width="28" height="28" patternUnits="userSpaceOnUse">
      <path d="M28 0H0v28" fill="none" stroke="#ffffff" stroke-opacity=".05"/>
    </pattern>
  </defs>
  <rect width="560" height="520" fill="url(#bg)"/>
  <rect width="560" height="520" fill="url(#grid)"/>
  <rect width="560" height="520" fill="url(#glow)"/>
  <g transform="translate(280 260) rotate(-8) scale(0.92) translate(-280 -260)">
    <rect x="120" y="120" width="320" height="204" rx="14" fill="#0d1220" stroke="#00b392" stroke-width="2"/>
    <rect x="132" y="132" width="296" height="180" rx="8" fill="url(#screen)"/>
    <rect x="156" y="164" width="120" height="10" rx="5" fill="#00b392" opacity=".55"/>
    <rect x="156" y="186" width="180" height="8" rx="4" fill="#00b392" opacity=".28"/>
    <rect x="156" y="204" width="150" height="8" rx="4" fill="#00b392" opacity=".2"/>
    <path d="M96 324h368l26 40a8 8 0 0 1-7 12H77a8 8 0 0 1-7-12z" fill="#131a2c" stroke="#00b392" stroke-width="2"/>
    <rect x="236" y="352" width="88" height="8" rx="4" fill="#00b392" opacity=".4"/></g>
  <ellipse cx="280" cy="452" rx="150" ry="18" fill="#000" opacity=".35"/>
  <text x="280" y="496" text-anchor="middle" font-family="system-ui, sans-serif" font-size="15" letter-spacing="1.2" fill="#ffffff" fill-opacity=".42">ASUS TUF Gaming A15 RTX 4060</text>
</svg>